<svg width="1080" height="1080" viewBox="0 0 1080 1080" xmlns="http://www.w3.org/2000/svg"><path d="M1026,566.9999999999999C1005.4743332608533,645.5961226183396,890.8841856084757,723.7326348700967,846.4100893391517,788.2883678550189C801.9359930698276,852.8441008399411,808.4329160785876,915.8125177442997,759.1554223840558,954.3343979095332C709.877928689524,992.8562780747667,619.0376890896497,1028.1274970881059,550.7451271719611,1019.4196488464197C482.4525652542726,1010.7118006047335,395.6327190394179,955.193974837379,349.4000508779244,902.0873084594162C303.1673827164309,848.9806420814535,283.9642682905996,778.2709989743215,273.3491182030001,700.7796505786433C262.7339681154006,623.2883021829651,287.8818917653905,513.6170445916904,285.7091503523274,437.1392180853472C283.53640893926433,360.6613915790039,226.60447432050591,294.33916936254496,260.3126697246216,241.9126915405838C294.02086512873734,189.48621371862265,415.8436424830229,140.78819939526647,487.95832277702164,122.5803511535803C560.0730030710204,104.3725029118941,612.7331236557791,100.31038859189988,693.000751488614,132.66560209046668C773.268379321449,165.02081558903348,914.0642150221339,244.32256582672562,969.5640897740316,316.71163214498114C1025.0639645259294,389.10069846323665,1046.5256667391466,488.40387738166027,1026,566.9999999999999C1005.4743332608533,645.5961226183396,890.8841856084757,723.7326348700967,846.4100893391517,788.2883678550189" fill="#3677b0"/></svg>