<svg width="1080" height="1080" viewBox="0 0 1080 1080" xmlns="http://www.w3.org/2000/svg"><path d="M1076,579.9999999999999C1074.0859064548176,656.2743995993254,953.9346180622371,655.8838355049106,905.2834316999022,733.8099684317643C856.6322453375673,811.736101358618,852.2156582629975,1000.8880815516069,784.0928818259904,1047.556797561122C715.9701053889833,1094.225513570637,578.8628842125239,1053.266064208229,496.5467730778593,1013.8222644888551C414.2306619431947,974.3784647694813,361.7429790555814,858.0461112693963,290.196215018003,810.8939992448788C218.6494509804246,763.7418872203614,103.08785987999124,796.3532834755115,67.2661888523889,730.9095923417506C31.444517824786537,665.4659012079896,36.38437406957356,493.8324128075279,75.26618885238884,418.23185244231297C114.1480036352041,342.63129207709807,230.38732404025785,295.1573279160899,300.55707754928056,277.30623015046115C370.7268310583033,259.4551323848324,421.5547835935022,338.7691038004711,496.2847099065252,311.12526584854055C571.0146362195483,283.48142789661,678.8560882500069,117.27015160766594,748.9366354274189,111.44320243887773C819.0171826048309,105.61625327008953,862.2574322089,198.07077124229102,916.7679929709968,276.16357083581136C971.2785537330936,354.2563704293317,1077.9140935451824,503.7256004006744,1076,579.9999999999999C1074.0859064548176,656.2743995993254,953.9346180622371,655.8838355049106,905.2834316999022,733.8099684317643" fill="#3677b0"/></svg>