<svg width="1080" height="1080" viewBox="0 0 1080 1080" xmlns="http://www.w3.org/2000/svg"><path d="M930.9176389041838,598.9999999999999C935.9176389041838,664.6167934721205,1007.0409734189377,786.9317309386166,964.5640897740316,835.2883678550189C922.0872061291254,883.6450047714212,744.6777767346921,895.2959632916455,676.0563370347468,889.1398214984135C607.4348973348015,882.9836797051815,617.4593961260471,818.54191977454,552.8354515743596,798.351517095627C488.2115070226721,778.1611144167139,356.41388467476895,797.1657910039427,288.31266972462174,767.9974054249353C220.21145477447453,738.829019845928,169.07557984866713,672.9707129555125,144.2281618734762,623.3412036215827C119.38074389828527,573.711694287653,118.54741056495192,540.4584347681899,139.22816187347615,470.2203494213568C159.9089131820004,399.98226407452364,203.810564629586,238.2207140400232,268.3126697246216,201.9126915405838C332.81477481965726,165.6046690411444,454.247689498285,256.0800626664065,526.24079244369,252.3722144247203C598.233895389095,248.66436618303413,632.2174045086612,148.12970332420426,700.2712873970514,179.66560209046668C768.3251702854417,211.2015008567291,896.1230311895094,371.6985407040393,934.5640897740316,441.58760702229483C973.0051483585537,511.47667334055035,925.9176389041838,533.3832065278792,930.9176389041838,598.9999999999999C935.9176389041838,664.6167934721205,1007.0409734189377,786.9317309386166,964.5640897740316,835.2883678550189" fill="#3677b0"/></svg>